<svg xmlns="http://www.w3.org/2000/svg" width="197.631" height="166.873" viewBox="0 0 197.631 166.873">
  <g id="Group_27" data-name="Group 27" transform="translate(-110.974 61.696)">
    <g id="Group_6" data-name="Group 6" transform="translate(110.974 -61.696)">
      <path id="Path_4" data-name="Path 4" d="M304.928,75.833V74.068c0-.563-.311-.847-.93-.847h-2.713V76.7H304c.619,0,.93-.289.93-.864m-15.934-2.879h-2.712l1.308,1.967ZM210.662,76.7v-.764a1.391,1.391,0,0,0-1.566-1.576H199.4V76.7Zm78.593-10.538a1.744,1.744,0,0,1-.529,1.269,1.762,1.762,0,0,1-2.517,0,1.752,1.752,0,0,1-.528-1.269,1.787,1.787,0,0,1,3.575,0m-22.68,6.977a1.752,1.752,0,0,1-.528,1.269,1.764,1.764,0,0,1-2.517,0A1.748,1.748,0,0,1,263,73.137a1.787,1.787,0,0,1,3.575,0M157.544,83.781a1.769,1.769,0,0,1-1.788,1.788,1.669,1.669,0,0,1-1.241-.53,1.8,1.8,0,0,1,0-2.517,1.675,1.675,0,0,1,1.241-.528,1.767,1.767,0,0,1,1.788,1.787m-5.314,0a1.732,1.732,0,0,1-.517,1.258,1.747,1.747,0,0,1-2.507,0,1.777,1.777,0,1,1,3.024-1.258m-26.954-3.576a7.319,7.319,0,0,1-2.021,5.162,6.66,6.66,0,0,1-5.047,2.223,7.09,7.09,0,0,1-5.112-2.055,6.733,6.733,0,0,1-2.122-5.023V72.954h3.576v7.469a3.545,3.545,0,0,0,3.569,3.559,3.47,3.47,0,0,0,2.535-1.036,3.424,3.424,0,0,0,1.047-2.523V72.954h3.575V76.7h3.242V72.954H132.1V76.7h1.023a5.6,5.6,0,0,0,1.6-.13c.434-.193.652-.684.652-1.464v-2.15h3.577V76.7h48.246V72.954h3.576V76.7h5.024V61.659h3.61v9.189h12.1q2.865,0,2.868,2.641v6.716ZM308.6,77.56q0,2.642-2.874,2.646H225.738q-3.57,0-3.575-3.475V61.659h3.575V75.115c0,1.051.6,1.582,1.81,1.582h46.436V72.954h3.575V76.7h7.616l-2.245-2.6a2.7,2.7,0,0,1-.759-1.759,2.311,2.311,0,0,1,1.009-1.876,3.267,3.267,0,0,1,2.054-.719h4.7a3.273,3.273,0,0,1,2.056.719A2.31,2.31,0,0,1,293,72.341a2.68,2.68,0,0,1-.769,1.759l-2.277,2.6h7.657V69.713h8.127q2.865,0,2.868,2.628Z" transform="translate(-110.974 79.282)" fill="#0073ff"/>
      <path id="Path_5" data-name="Path 5" d="M278.324,29.485a7.139,7.139,0,0,1,7.091,5.665H271.278a7.175,7.175,0,0,1,7.046-5.665m12.8,7.95a12.78,12.78,0,0,0-25.56-.144c0,7.283,5.71,12.805,13.422,12.805a14.005,14.005,0,0,0,11.041-5.046l-3.617-3.094a9.309,9.309,0,0,1-7.281,3.331,7.634,7.634,0,0,1-7.807-5.759h19.659a15.5,15.5,0,0,0,.143-2.093M252.088,24.678A10.073,10.073,0,0,0,243.9,28.39V25.249h-5.331V49.524H243.9V36.1c0-3.761,2.571-6.283,6.426-6.283,3.664,0,6.044,2.475,6.044,6.188V49.524H261.7V34.245c0-5.759-3.856-9.566-9.614-9.566M194.81,29.723A5.574,5.574,0,1,1,189,35.292a5.534,5.534,0,0,1,5.806-5.569m5.379,20.037H191.86c-1.714,0-2.857-.951-2.857-2.331a2.812,2.812,0,0,1,1.285-2.332,12.746,12.746,0,0,0,4.521.808c6.378,0,11.281-4.569,11.281-10.614a10.171,10.171,0,0,0-2.237-6.473,2.476,2.476,0,0,1,2.713-2.094h1.666v-4.95h-1.95c-3.095,0-5.332,1.619-5.95,4.189a12.257,12.257,0,0,0-5.522-1.285c-6.426,0-11.279,4.569-11.279,10.614a10.261,10.261,0,0,0,3.283,7.615,6.8,6.8,0,0,0-3.188,5.854c0,3.666,2.9,6.188,7.234,6.188h8.329c2.427,0,4.093,1.238,4.236,3.188h5.521a8.72,8.72,0,0,0-8.757-8.377m-33.946-4.806a7.371,7.371,0,0,1-7.52-7.568,7.5,7.5,0,1,1,14.993,0,7.36,7.36,0,0,1-7.473,7.568m7.473-19.705v3.475a10.589,10.589,0,0,0-8.519-4.046c-6.855,0-11.947,5.474-11.947,12.708S158.341,50.1,165.2,50.1a10.59,10.59,0,0,0,8.519-4.047v3.475h5.331V25.249Zm-33.565-.57a9.91,9.91,0,0,0-8.519,4.284,8.513,8.513,0,0,0-7.806-4.284A9.277,9.277,0,0,0,116.3,28.1V25.249h-5.331V49.524H116.3V35.435a5.384,5.384,0,0,1,5.758-5.617c3.284,0,5.379,2.19,5.379,5.521V49.524h5.331V35.435a5.385,5.385,0,0,1,5.759-5.617c3.284,0,5.379,2.19,5.379,5.521V49.524h5.33V33.769c0-5.474-3.569-9.091-9.091-9.091m82.181,5.045a5.574,5.574,0,1,1-5.807,5.569,5.533,5.533,0,0,1,5.807-5.569m5.378,20.037H219.38c-1.714,0-2.857-.951-2.857-2.331a2.81,2.81,0,0,1,1.286-2.332,12.737,12.737,0,0,0,4.521.808c6.378,0,11.28-4.569,11.28-10.614a10.165,10.165,0,0,0-2.237-6.473,2.476,2.476,0,0,1,2.713-2.094h1.666v-4.95H233.8c-3.094,0-5.331,1.619-5.95,4.189a12.249,12.249,0,0,0-5.521-1.285c-6.426,0-11.281,4.569-11.281,10.614a10.263,10.263,0,0,0,3.286,7.615,6.8,6.8,0,0,0-3.191,5.854c0,3.666,2.9,6.188,7.235,6.188h8.331c2.426,0,4.093,1.238,4.234,3.188h5.522a8.72,8.72,0,0,0-8.758-8.377M308.6,30.1V25.249H301.75V18.967h-5.331v6.282h-4.093V30.1h4.093V42.431c0,4.712,2.523,7.664,7.759,7.664a9.345,9.345,0,0,0,4.426-1v-5a7.191,7.191,0,0,1-3.331.856c-2.237,0-3.523-1.1-3.523-3.379V30.1Z" transform="translate(-110.974 79.575)" fill="#0073ff"/>
      <path id="Path_6" data-name="Path 6" d="M25.594,17.736c-.364,2.315-.675,4.845-.934,7.508-.471,4.847-.707,10.166-.707,15.537s.236,10.689.707,15.537c.259,2.663.57,5.191.934,7.508a90.5,90.5,0,0,0,8.769-6.277c7.82-6.3,14.43-13.42,14.43-16.767s-6.61-10.472-14.43-16.768a90.671,90.671,0,0,0-8.769-6.276M21.506,66.159a94.475,94.475,0,0,1-1.36-9.415c-.495-5.09-.742-10.552-.742-15.963s.248-10.874.744-15.963A94.487,94.487,0,0,1,21.506,15.4c-3.118-1.6-5.908-2.569-7.973-2.569-4.029,0-6.78,6.983-8.128,15.923a81.674,81.674,0,0,0-.855,12.024A81.659,81.659,0,0,0,5.4,52.8c1.349,8.94,4.1,15.924,8.128,15.924,2.065,0,4.855-.969,7.973-2.569M45.231,53.795a88.037,88.037,0,0,1-8.024,7.289,88.448,88.448,0,0,1-10.733,7.461c1.15,5.168,2.645,8.469,4.448,8.469,1.993,0,5.844-5.775,9.516-12.793a114.01,114.01,0,0,0,4.793-10.426M26.474,13.017a88.6,88.6,0,0,1,10.733,7.46,88.037,88.037,0,0,1,8.024,7.289A114.313,114.313,0,0,0,40.438,17.34c-3.672-7.017-7.523-12.792-9.516-12.792-1.8,0-3.3,3.3-4.448,8.469m31.21,2.226C62.059,6.881,67.294,0,71.216,0c3.694,0,6.463,4.293,8.347,10.935C83,9.282,86.142,8.285,88.6,8.285c6.78,0,10.946,8.683,12.624,19.8a89.184,89.184,0,0,1,0,25.4c-1.678,11.114-5.844,19.8-12.624,19.8-2.463,0-5.608-1-9.042-2.65-1.883,6.644-4.653,10.936-8.347,10.936-3.922,0-9.157-6.881-13.532-15.244A112.082,112.082,0,0,1,51.068,50.98a112.072,112.072,0,0,1-6.615,15.337c-4.375,8.363-9.61,15.244-13.532,15.244-3.694,0-6.463-4.294-8.347-10.936-3.435,1.654-6.58,2.65-9.042,2.65-6.78,0-10.946-8.682-12.624-19.8a89.183,89.183,0,0,1,0-25.4c1.678-11.114,5.844-19.8,12.624-19.8,2.462,0,5.607,1,9.042,2.65C24.459,4.293,27.228,0,30.922,0c3.922,0,9.157,6.881,13.532,15.243a112.025,112.025,0,0,1,6.615,15.338,112.035,112.035,0,0,1,6.616-15.338m-.777,38.551A114.011,114.011,0,0,0,61.7,64.221c3.671,7.018,7.523,12.793,9.516,12.793,1.8,0,3.3-3.3,4.448-8.469a88.486,88.486,0,0,1-10.733-7.461,87.89,87.89,0,0,1-8.024-7.289M71.216,4.548c-1.993,0-5.845,5.775-9.516,12.792a113.893,113.893,0,0,0-4.793,10.427,91.923,91.923,0,0,1,18.757-14.75c-1.151-5.168-2.645-8.469-4.448-8.469m5.327,13.188a91.012,91.012,0,0,0-8.77,6.276c-7.82,6.3-14.429,13.421-14.429,16.768s6.609,10.472,14.429,16.767a90.643,90.643,0,0,0,8.77,6.277c.363-2.317.675-4.845.934-7.508.471-4.847.707-10.167.707-15.537s-.236-10.689-.707-15.537c-.259-2.663-.572-5.191-.934-7.508M88.6,68.727c4.028,0,6.78-6.984,8.128-15.924a81.659,81.659,0,0,0,.855-12.022,81.675,81.675,0,0,0-.855-12.024c-1.349-8.94-4.1-15.923-8.128-15.923-2.065,0-4.856.969-7.973,2.569a94.814,94.814,0,0,1,1.359,9.415c.5,5.09.744,10.552.744,15.963s-.248,10.874-.742,15.963a94.848,94.848,0,0,1-1.36,9.415c3.118,1.6,5.908,2.569,7.973,2.569" transform="translate(47.746 0)" fill="#0073ff"/>
    </g>
  </g>
</svg>
